<?xml version="1.0" encoding="utf-8"?>
<!-- Generator: Adobe Illustrator 24.0.0, SVG Export Plug-In . SVG Version: 6.00 Build 0)  -->
<svg version="1.1" id="Layer_1" xmlns="http://www.w3.org/2000/svg" xmlns:xlink="http://www.w3.org/1999/xlink" x="0px" y="0px"
	 viewBox="0 0 144.89 34.56" style="enable-background:new 0 0 144.89 34.56;" xml:space="preserve">
<style type="text/css">
	.st0{fill:#FFFFFF;}
</style>
<path class="st0" d="M110.7,3.18c-0.13,0.39-0.28,0.79-0.3,1.19c-0.12,2.87-0.25,5.75-0.3,8.62c-0.02,1.34,0.48,2.81,0.08,3.99
	c-0.41,1.19-1.71,2.05-2.5,3.15c-1.41,1.98-3.4,2.36-5.6,2.29c-0.65-0.02-1.3-0.12-1.94-0.08c-0.71,0.04-1.39,0.24-1.46,1.4
	c1.22-0.02,2.36-0.04,3.81-0.07c-2.83,2.31-5.45,3.27-9.22,3.56c-1.63,0.13-3.18,0.2-4.12-1.54c-0.2-0.37-0.69-0.59-1.06-0.9
	c0.1-1.28,0.24-2.51,0.28-3.74c0.01-0.35-0.26-0.97-0.46-0.99c-0.4-0.05-1.13,0.13-1.21,0.39c-0.69,2.05-2.61,2.95-3.96,4.36
	c-0.92,0.96-2.03,1.79-3.17,2.49c-2.83,1.73-3.75,0.24-4.24-2.36c-0.13-0.72,0.11-1.51,0.19-2.26c0.04-0.39,0.11-0.78,0.2-1.34
	c-0.6-0.09-1.12-0.3-1.6-0.23c-2.15,0.32-4.29,0.7-6.42,1.11c-0.46,0.09-1.09,0.15-1.05,1.09c2.35-0.49,4.65-0.97,7.2-1.5
	c-0.09,1.11-0.19,1.97-0.22,2.83c-0.07,1.74,0.69,3.1,2.11,4.01c1.42,0.91,2.97,0.83,4.35-0.04c1.28-0.81,2.44-1.81,3.63-2.76
	c0.88-0.7,1.74-1.44,2.78-2.31c0.52,2.58,1.56,4.4,4.05,4.81c1.46,0.24,2.86,0.76,4.45,0.29c2.82-0.84,5.52-1.96,8.23-3.1
	c0.21-0.09,0.44-0.21,0.59-0.38c1.79-1.97,4.22-1.87,6.54-1.94c1.38-0.05,1.94,0.54,1.89,1.93c-0.08,2.25,0.88,4.21,1.39,6.28
	c0.64,0.05,1.2,0.1,1.74,0.14c0.54-1.84,0.35-2.67-0.63-4.6c-0.47-0.92-0.82-1.95-1-2.97c-0.2-1.21,0.2-1.51,1.44-1.68
	c1.73-0.22,3.52-0.11,5.16-0.88c0.31-0.14,0.69-0.15,1.04-0.16c2.04-0.05,4.08-0.03,6.11-0.15c1.46-0.08,2.96-0.14,4.35-0.53
	c2.9-0.82,5.91-0.77,8.85-1.3c0.78-0.14,1.44-0.31,1.84-1.4c-0.8,0-1.41,0.01-2.02,0.01c-2.83,0.01-5.49,1.09-8.3,1.3
	c-3.68,0.27-7.35,0.86-11.02,1.24c-2.34,0.24-4.69,0.34-7.03,0.52c-0.7,0.05-1.16-0.2-1.24-0.93c-0.21-1.95-0.26-3.82,1.05-5.56
	c0.83-1.1,1.39-2.45,1.86-3.77c1.15-3.25,0.11-6-2.22-8.34"/>
<path class="st0" d="M20.7,29.8c-0.32-0.46-0.59-0.92-0.93-1.3c-2.39-2.65-3.44-5.8-3.53-9.32c-0.03-1.21,0.18-2.33,0.73-3.41
	c0.25-0.47,0.46-1.14-0.26-1.3c-0.38-0.09-1.09,0.25-1.27,0.59c-0.32,0.59-0.35,1.34-0.49,2.02c-0.31,1.49-0.52,3.01-0.94,4.47
	c-0.26,0.89-0.98,1.63-1.25,2.52c-0.59,1.93-1.93,3.34-3.08,4.88c-0.56,0.74-1.34,1.33-2.09,1.88c-0.88,0.64-1.83,0.45-2.14-0.58
	c-0.56-1.83-1.31-3.63-1.33-5.61c-0.03-4.23,1.42-8.07,3.23-11.78c0.45-0.92,1.23-1.72,2-2.43c1.07-1,2.23-1.01,3.3-0.05
	c0.88,0.79,1.62,1.73,2.38,2.55c0.36-0.94,0.44-1.25,0.1-1.76c-0.97-1.47-2.24-2.73-4.06-2.8c-1.79-0.07-3.19,0.85-4.23,2.42
	c-2.16,3.27-2.89,7.04-3.79,10.72c-0.82,3.34,0.31,6.5,1.44,9.61c0.23,0.64,0.28,1.46,1.21,1.52c0.7,0.05,1.42,0.17,2.08,0.01
	c0.53-0.12,1.03-0.55,1.47-0.93c1.88-1.67,3.13-3.76,4.08-6.08c0.38-0.94,0.98-1.79,1.62-2.93c0.49,0.98,0.81,1.66,1.16,2.32
	c0.98,1.84,1.71,3.84,3.42,5.21c1.33,1.06,2.73,1.32,4.02,0.3c1.47-1.16,2.93-2.4,4.08-3.86c2.13-2.7,4.03-5.58,6.19-8.62
	c0.5,1.45,1.04,2.67,1.33,3.95c0.5,2.29,0.88,4.6,1.25,6.92c0.2,1.28,0.2,2.57-0.58,3.7c-0.32,0.47-1.07,0.86-0.59,1.45
	c0.29,0.35,1.02,0.39,1.56,0.46c0.39,0.05,0.86,0.02,1.2-0.16c2.22-1.18,4.65-2,6.52-3.79c1.35-1.3,1.98-2.98,2.09-4.7
	c0.06-0.88-0.85-1.85-1.39-2.73c-0.59-0.95-1.58-1.13-2.49-0.74c-0.99,0.43-1.95,1.06-2.76,1.78c-0.68,0.61-1.11,1.51-1.7,2.24
	c-0.21,0.26-0.6,0.38-1.09,0.66c-0.25-1.27-0.56-2.28-0.64-3.32c-0.2-2.62-1.08-5.16-0.96-7.82c0-0.06-0.02-0.12-0.03-0.17
	c-0.11-0.53-0.23-1.08-0.92-1.11c-0.62-0.03-0.89,0.36-1.15,0.89c-0.59,1.21-1.27,2.37-1.95,3.53c-0.44,0.76-0.94,1.49-1.43,2.22
	c-0.95,1.41-1.83,2.88-2.91,4.19C25.5,27.53,23.67,29.37,20.7,29.8z"/>
<path class="st0" d="M65.67,23.64c-0.03-0.16-0.06-0.32-0.1-0.48c-1.5-0.09-2.81,0.71-4.17,1.21c-0.33,0.12-0.54,0.6-1,1.15
	c2.07,0.24,2.4,1.55,2.56,2.93c0.15,1.26-0.62,2.17-1.89,2.28c-1.69,0.14-3.05-0.74-4.42-1.53c-0.14-0.08-0.24-0.26-0.3-0.42
	c-0.61-1.47,0.32-4.17,1.72-4.95c0.55-0.31,1.19-0.52,1.18-1.29c-0.72-0.63-1.37-0.35-2.01-0.02c-1.35,0.72-3.27,4.03-2.96,5.5
	c0.28,1.32,0.99,2.64,2.25,3.19c1.18,0.51,2.55,0.72,3.85,0.78c2.38,0.11,4.54-1.03,3.89-3.92c-0.13-0.57-0.21-1.15-0.36-1.71
	c-0.41-1.56-0.38-1.65,1.18-2.39C65.28,23.88,65.47,23.75,65.67,23.64z"/>
<path d="M113.62,2.4c2.34,2.34,3.38,5.09,2.22,8.34c-0.47,1.32-1.03,2.67-1.86,3.77c-1.31,1.74-1.26,3.6-1.05,5.56
	c0.08,0.73,0.54,0.98,1.24,0.93c2.34-0.17,4.69-0.27,7.03-0.52c3.68-0.38,7.34-0.97,11.02-1.24c2.82-0.21,5.47-1.29,8.3-1.3
	c0.61,0,1.22,0,2.02-0.01c-0.4,1.09-1.06,1.26-1.84,1.4c-2.93,0.53-5.94,0.48-8.85,1.3c-1.39,0.39-2.89,0.45-4.35,0.53
	c-2.03,0.11-4.08,0.09-6.11,0.15c-0.35,0.01-0.74,0.02-1.04,0.16c-1.64,0.77-3.43,0.66-5.16,0.88c-1.24,0.16-1.64,0.47-1.44,1.68
	c0.17,1.02,0.52,2.05,1,2.97c0.99,1.93,1.17,2.76,0.63,4.6c-0.54-0.04-1.1-0.09-1.74-0.14c-0.51-2.07-1.47-4.03-1.39-6.28
	c0.05-1.4-0.51-1.98-1.89-1.93c-2.33,0.08-4.75-0.03-6.54,1.94c-0.15,0.17-0.38,0.29-0.59,0.38c-2.7,1.14-5.4,2.26-8.23,3.1
	c-1.58,0.47-2.99-0.05-4.45-0.29c-2.5-0.4-3.54-2.23-4.05-4.81c-1.04,0.87-1.89,1.61-2.78,2.31c-1.19,0.94-2.35,1.95-3.63,2.76
	c-1.38,0.87-2.93,0.95-4.35,0.04c-1.43-0.92-2.18-2.28-2.11-4.01c0.03-0.86,0.13-1.72,0.22-2.83c-2.55,0.53-4.85,1.01-7.2,1.5
	c-0.04-0.94,0.59-1,1.05-1.09c2.13-0.41,4.27-0.79,6.42-1.11c0.48-0.07,0.99,0.13,1.6,0.23c-0.08,0.56-0.16,0.95-0.2,1.34
	c-0.08,0.76-0.33,1.55-0.19,2.26c0.49,2.6,1.41,4.1,4.24,2.36c1.14-0.7,2.25-1.53,3.17-2.49c1.35-1.42,3.27-2.31,3.96-4.36
	c0.09-0.26,0.81-0.44,1.21-0.39c0.2,0.02,0.47,0.65,0.46,0.99c-0.03,1.23-0.17,2.46-0.28,3.74c0.37,0.3,0.86,0.53,1.06,0.9
	c0.95,1.74,2.5,1.67,4.12,1.54c3.78-0.3,6.39-1.25,9.22-3.56c-1.45,0.03-2.59,0.05-3.81,0.07c0.08-1.16,0.75-1.35,1.46-1.4
	c0.64-0.04,1.29,0.06,1.94,0.08c2.21,0.07,4.2-0.32,5.6-2.29c0.78-1.1,2.09-1.95,2.5-3.15c0.4-1.18-0.1-2.65-0.08-3.99
	c0.05-2.88,0.17-5.75,0.3-8.62c0.02-0.4,0.17-0.81,0.3-1.19"/>
<path d="M113.01,4.7c-0.76,0.31-0.95,0.89-0.96,1.58c-0.03,2.35-0.09,4.69-0.08,7.04c0,0.26,0.34,0.51,0.64,0.95
	c1.13-1.5,1.88-3,1.87-4.64C114.47,7.95,114.81,6.04,113.01,4.7z"/>
<path d="M110.59,19.2c-0.93,0.69-1.8,1.28-2.11,2.6c0.95,0.06,1.83,0.19,2.38-0.51C111.29,20.74,111.35,19.98,110.59,19.2z"/>
<path d="M20.7,29.8c2.97-0.43,4.8-2.27,6.46-4.28c1.07-1.31,1.95-2.78,2.91-4.19c0.49-0.73,0.99-1.46,1.43-2.22
	c0.68-1.16,1.36-2.33,1.95-3.53c0.26-0.53,0.53-0.92,1.15-0.89c0.69,0.03,0.81,0.58,0.92,1.11c0.01,0.06,0.03,0.12,0.03,0.17
	c-0.12,2.66,0.76,5.2,0.96,7.82c0.08,1.03,0.39,2.04,0.64,3.32c0.49-0.29,0.88-0.4,1.09-0.66c0.6-0.72,1.02-1.62,1.7-2.24
	c0.81-0.72,1.77-1.35,2.76-1.78c0.91-0.4,1.9-0.21,2.49,0.74c0.55,0.88,1.45,1.85,1.39,2.73c-0.11,1.72-0.74,3.4-2.09,4.7
	c-1.88,1.8-4.3,2.61-6.52,3.79c-0.34,0.18-0.81,0.21-1.2,0.16c-0.54-0.07-1.27-0.11-1.56-0.46c-0.48-0.59,0.27-0.99,0.59-1.45
	c0.78-1.13,0.78-2.42,0.58-3.7c-0.37-2.31-0.74-4.63-1.25-6.92c-0.28-1.28-0.83-2.5-1.33-3.95c-2.16,3.04-4.06,5.92-6.19,8.62
	c-1.15,1.46-2.61,2.7-4.08,3.86c-1.29,1.02-2.69,0.77-4.02-0.3c-1.72-1.37-2.45-3.37-3.42-5.21c-0.35-0.66-0.67-1.35-1.16-2.32
	c-0.64,1.15-1.23,2-1.62,2.93c-0.95,2.31-2.2,4.4-4.08,6.08C8.8,32.1,8.3,32.53,7.77,32.65c-0.66,0.15-1.39,0.03-2.08-0.01
	c-0.94-0.06-0.98-0.88-1.21-1.52c-1.13-3.11-2.26-6.27-1.44-9.61c0.91-3.69,1.64-7.45,3.79-10.72c1.04-1.57,2.44-2.49,4.23-2.42
	c1.82,0.07,3.09,1.32,4.06,2.8c0.34,0.51,0.26,0.82-0.1,1.76c-0.76-0.82-1.51-1.75-2.38-2.55c-1.07-0.97-2.23-0.96-3.3,0.05
	c-0.76,0.71-1.55,1.51-2,2.43c-1.8,3.72-3.26,7.55-3.23,11.78c0.02,1.97,0.77,3.77,1.33,5.61c0.31,1.03,1.27,1.22,2.14,0.58
	c0.76-0.55,1.54-1.14,2.09-1.88c1.16-1.53,2.5-2.95,3.08-4.88c0.27-0.88,0.99-1.63,1.25-2.52c0.42-1.46,0.64-2.98,0.94-4.47
	c0.14-0.68,0.17-1.43,0.49-2.02c0.19-0.34,0.89-0.68,1.27-0.59c0.72,0.16,0.5,0.83,0.26,1.3c-0.56,1.08-0.77,2.2-0.73,3.41
	c0.09,3.52,1.14,6.67,3.53,9.32C20.11,28.88,20.38,29.34,20.7,29.8z M38.6,31.26c2.46,0.13,4.19-0.97,5.72-2.65
	c0.79-0.87,1.06-1.77,0.91-2.87c-0.26-1.93-1.67-2.55-3.45-1.79C40.1,24.67,38.21,28.69,38.6,31.26z"/>
<path d="M65.67,23.64c-0.19,0.11-0.38,0.23-0.58,0.33c-1.55,0.75-1.59,0.83-1.18,2.39c0.15,0.56,0.23,1.14,0.36,1.71
	c0.64,2.89-1.51,4.03-3.89,3.92c-1.3-0.06-2.67-0.27-3.85-0.78c-1.27-0.55-1.98-1.87-2.25-3.19c-0.31-1.48,1.61-4.79,2.96-5.5
	c0.64-0.34,1.29-0.62,2.01,0.02c0,0.78-0.63,0.98-1.18,1.29c-1.39,0.78-2.32,3.49-1.72,4.95c0.06,0.16,0.16,0.34,0.3,0.42
	c1.38,0.79,2.73,1.68,4.42,1.53c1.28-0.11,2.04-1.02,1.89-2.28c-0.16-1.39-0.49-2.7-2.56-2.93c0.46-0.55,0.66-1.03,1-1.15
	c1.36-0.5,2.67-1.31,4.17-1.21C65.6,23.32,65.63,23.48,65.67,23.64z"/>
<path class="st0" d="M113.01,4.7c1.8,1.34,1.46,3.25,1.47,4.93c0.01,1.64-0.75,3.14-1.87,4.64c-0.3-0.43-0.64-0.69-0.64-0.95
	c-0.01-2.35,0.05-4.69,0.08-7.04C112.06,5.59,112.25,5,113.01,4.7z"/>
<path class="st0" d="M110.59,19.2c0.76,0.78,0.7,1.54,0.27,2.09c-0.55,0.7-1.43,0.57-2.38,0.51
	C108.79,20.49,109.66,19.9,110.59,19.2z"/>
<path class="st0" d="M38.6,31.26c-0.38-2.57,1.51-6.59,3.18-7.31c1.78-0.76,3.19-0.14,3.45,1.79c0.15,1.1-0.12,2-0.91,2.87
	C42.78,30.29,41.06,31.39,38.6,31.26z"/>
</svg>
