<?xml version="1.0" encoding="utf-8"?>
<!-- Generator: Adobe Illustrator 24.0.0, SVG Export Plug-In . SVG Version: 6.00 Build 0)  -->
<svg version="1.1" id="Layer_1" xmlns="http://www.w3.org/2000/svg" xmlns:xlink="http://www.w3.org/1999/xlink" x="0px" y="0px"
	 viewBox="0 0 179.93 25.65" style="enable-background:new 0 0 179.93 25.65;" xml:space="preserve">
<style type="text/css">
	.st0{fill:#FFFFFF;}
</style>
<path class="st0" d="M84.37,16.11c-1.52,1.42-0.72,2.98-0.37,4.68c0.62-0.02,1.16-0.03,1.92-0.05c-0.29-0.91-0.49-1.56-0.71-2.21
	C84.93,17.73,84.64,16.92,84.37,16.11c-0.26-0.63-0.36-1.42-0.81-1.83c-0.86-0.8-0.9-1.75-0.87-2.75c0.02-0.94,0.09-1.88,0.24-2.81
	c0.28-1.8-0.26-3.38-1.27-4.8c-0.21-0.3-0.82-0.52-1.2-0.46c-0.59,0.09-0.77,0.66-0.68,1.25c0.07,0.47,0.15,0.93,0.2,1.4
	c0.24,2.01,0.42,4-1.14,5.65c-0.12,0.12-0.23,0.31-0.23,0.47c0.02,1-0.67,1.4-1.41,1.82c-0.41,0.22-0.7,0.65-1.11,0.86
	c-1.37,0.71-2.12,2.13-3.64,2.78c-1.9,0.82-3.61,0.81-5.44,0.08c-0.44-0.17-0.92-0.23-1.38-0.34c1.09,1.13,4.13,2.22,5.26,2.06
	c0.45-0.06,0.86-0.32,1.3-0.47c0.36-0.12,0.76-0.36,1.1-0.3c1.16,0.21,1.76-0.48,2.23-1.31c0.78-1.37,1.22-1.62,2.85-1.37
	c0.28,0.04,0.58,0.04,0.85-0.02c0.13-0.03,0.22-0.24,0.39-0.45c-0.4-0.27-0.77-0.52-1.05-0.7c1.34-2.26,1.34-2.26,2.64-1.53
	c-0.1,0.55-0.2,1.12-0.29,1.64c0.65,0.58,1.23,1.1,1.86,1.66C83.27,16.47,83.83,16.29,84.37,16.11z"/>
<path class="st0" d="M2.79,16.89c0.19-2.4,0.38-4.64,0.56-6.87c-0.84-0.41-1.31-0.08-1.5,0.68c-0.63,2.48-1.1,5.01,0.31,7.35
	c0.94,1.55,2.11,2.91,4.16,3.24c2.73,0.44,5.42,0.89,8.08-0.28c0.1-0.05,0.24-0.01,0.35-0.04c1.17-0.36,2.37-0.64,3.5-1.1
	c1.28-0.53,2.49-1.22,3.58-1.77c0.73,0.64,1.25,1.37,1.95,1.65c1.37,0.56,2.83,0.94,4.34,1.02c0.87,0.04,1.74,0.15,2.61,0.12
	c1.97-0.08,3.23-1.53,4.65-2.61c1.9-1.44,2.85-3.19,1.81-5.67c-0.45-1.06-0.19-1.27,1.02-1.47c0.7-0.12,1.41-0.16,2.09-0.32
	c0.4-0.09,0.77-0.33,1.16-0.51c-0.03-0.14-0.07-0.28-0.1-0.42c-0.41,0.03-0.83,0.01-1.23,0.1c-2.63,0.61-5.25,0.69-7.78-0.38
	C29.75,8.54,27.68,9.4,26,11.29c-1.24,1.39-2.22,3.01-3.34,4.52c-0.34,0.46-0.66,1.02-1.13,1.31c-3.57,2.18-7.44,3.57-11.61,3.72
	c-2.44,0.09-4.82-0.46-6.16-2.95C3.54,17.5,3.11,17.22,2.79,16.89z"/>
<path class="st0" d="M149.06,17.62c0.57,0.4,0.82,0.7,1.12,0.77c1.54,0.35,3.09,0.64,4.64,0.94c0.17,0.03,0.35,0.02,0.52,0
	c2.03-0.24,4.06-0.49,6.09-0.74c0.35-0.04,0.7-0.08,1.05-0.08c2.49-0.01,5.02,0.74,7.42-0.5c0.1-0.05,0.24,0,0.35-0.03
	c1.5-0.46,3.02-0.07,4.53-0.07c0.79,0,1.65-0.11,2.36-0.44c0.71-0.33,1.33-0.66,2.15-0.58c0.32,0.03,0.84-0.22,0.96-0.49
	c0.11-0.24-0.21-0.66-0.32-0.95c-1.19,0.3-2.2,0.61-3.23,0.78c-1.04,0.17-2.1,0.19-3.15,0.28c-0.88,0.08-1.78,0.05-2.63,0.25
	c-4.15,0.99-8.42,0.54-12.61,1.02c-1.05,0.12-1.39-0.19-1.53-1.25c-0.19-1.51-0.22-3.03-0.4-4.54c-0.07-0.61-0.23-1.29-0.57-1.77
	c-0.53-0.75-1.26-0.57-1.58,0.3c-0.1,0.27-0.24,0.6-0.18,0.85c0.35,1.48-0.39,2.49-1.39,3.38c-0.64,0.58-1.34,1.09-2.02,1.63
	C150.19,16.76,149.74,17.1,149.06,17.62z"/>
<path class="st0" d="M109.45,16.03c0.11,1.74,1.41,2.18,2.65,2.68c2.32,0.94,2.77,0.95,3.5,0.11c-0.56-0.17-1.1-0.38-1.67-0.5
	c-2.84-0.63-3.96-2.01-4.17-4.99c-0.04-0.6-0.32-1.25-0.67-1.75c-0.37-0.53-1.04-0.37-1.21,0.25c-0.16,0.56-0.15,1.16-0.22,1.74
	c-0.3,2.26-1.12,4.22-3.26,5.33c-1.11,0.58-2.34,0.64-3.35-0.1c-1.04-0.76-0.94-1.93-0.61-3.06c0.08-0.28,0.26-0.56,0.25-0.84
	c-0.06-1.43,0.83-2.27,1.88-2.94c1.19-0.76,2.45-1.4,3.66-2.12c0.32-0.19,0.58-0.48,0.92-0.77c-0.61-0.71-1.17-0.84-1.96-0.65
	c-1.45,0.34-2.55,1.24-3.55,2.22c-1.8,1.76-3.17,3.71-2.94,6.49c0.12,1.48,0.26,2.37,2,2.83c1.84,0.48,3.46,0.96,5.11-0.32
	c0.13-0.1,0.34-0.22,0.45-0.18c1.32,0.48,1.44-0.5,1.75-1.34C108.28,17.37,108.42,16.5,109.45,16.03z"/>
<path class="st0" d="M52.44,16.84c0.4-0.57,0.72-1.06,1.07-1.54c0.69-0.94,1.33-1.93,2.1-2.8c0.79-0.9,1.35-0.89,2.27-0.14
	c0.31,0.26,0.6,0.57,0.82,0.91c0.42,0.65,0.98,0.73,1.83,0.57c-0.29-0.51-0.48-0.93-0.75-1.29c-1.76-2.33-3.58-2.57-5.84-0.7
	c-0.88,0.73-1.64,1.62-2.66,2.65c-0.28-0.79-0.58-1.45-0.76-2.14c-0.21-0.85-0.28-1.74-0.48-2.6c-0.35-1.48-0.55-1.59-2.09-1.48
	c0.3,1.37,0.53,2.77,0.92,4.13c0.41,1.38,0.98,2.72,1.49,4.12C51.03,16.63,51.66,16.72,52.44,16.84z"/>
<path class="st0" d="M12.02,5.38c0.76,0.04,1.24-0.19,1.13-1.19c-0.2-1.77-1.42-2.54-3.27-2.13C6.32,2.85,4.45,5.4,2.94,8.53
	C4.13,8.34,4.8,7.7,5.35,6.82C6.1,5.64,6.92,4.54,8.28,3.89c2.15-1.02,2.61-0.91,3.51,1.32C11.81,5.26,11.88,5.28,12.02,5.38z"/>
<path class="st0" d="M148.48,18.58c-2.45,0.59-4.75,1.36-7.11,1.66c-2.36,0.3-4.79,0.12-7.58,0.15c0.94,0.83,1.68,0.78,2.43,0.73
	c0.92-0.06,2-0.43,2.71-0.07c1.65,0.84,3.2,0.28,4.74,0.01c1.19-0.21,2.26-0.79,3.57-0.53C148.4,20.75,148.87,19.93,148.48,18.58z"
	/>
<path class="st0" d="M136.29,8.77c-0.87-2.32-2.04-4.23-4.42-5.16c-3.06-1.19-3.5-0.46-5.05,1.94c0.82,0.34,1.53,0.26,2.02-0.46
	c0.53-0.79,1.24-0.75,2.02-0.65c0.91,0.11,1.7,0.44,2.24,1.22c0.63,0.9,1.29,1.79,1.87,2.73C135.23,8.82,135.42,9.21,136.29,8.77z"
	/>
<path class="st0" d="M159.88,24.36c0.11-1.94-1.06-3.07-1.99-4.3c-0.12-0.16-0.42-0.28-0.62-0.26c-0.32,0.03-0.68,0.12-0.9,0.32
	c-0.11,0.1,0,0.55,0.13,0.77c0.31,0.55,0.93,1.04,0.98,1.6C157.62,23.97,158.5,24.27,159.88,24.36z"/>
<path class="st0" d="M125.87,14.71c0.87,1.22,1.52,2.61,2.58,3.5c1,0.84,1.88,2.32,3.86,1.88c-1.33-1.01-2.57-1.81-3.64-2.8
	c-1.16-1.08-1.51-2.64-1.89-4.52C126.39,13.59,126.17,14.06,125.87,14.71z"/>
<path class="st0" d="M127.01,8.73c-0.08-0.14-0.17-0.27-0.25-0.41c-0.4,0.22-1.02,0.36-1.15,0.69c-0.34,0.84-0.6,1.78,0,2.79
	C126.12,10.67,126.57,9.7,127.01,8.73z"/>
<path class="st0" d="M46.93,9.08c-1.58-0.71-2.04-0.59-2.74,0.68C45.13,9.53,45.91,9.33,46.93,9.08z"/>
<path class="st0" d="M63.24,16.17c-0.79-0.63-1.23-1.51-2.52-0.87C61.52,15.87,62.05,16.52,63.24,16.17z"/>
<path class="st0" d="M126.26,6.82c-0.14,0.23-0.25,0.35-0.29,0.48c-0.02,0.07,0.09,0.18,0.14,0.27c0.12-0.09,0.3-0.15,0.34-0.26
	C126.48,7.21,126.36,7.06,126.26,6.82z"/>
<path d="M2.79,16.89c0.32,0.33,0.75,0.61,0.96,1c1.35,2.49,3.72,3.04,6.16,2.95c4.18-0.16,8.05-1.55,11.61-3.72
	c0.47-0.29,0.79-0.84,1.13-1.31c1.11-1.51,2.1-3.13,3.34-4.52c1.68-1.9,3.75-2.75,6.32-1.67c2.53,1.07,5.14,0.99,7.78,0.38
	c0.4-0.09,0.82-0.07,1.23-0.1c0.03,0.14,0.07,0.28,0.1,0.42c-0.38,0.17-0.75,0.41-1.16,0.51c-0.69,0.16-1.4,0.2-2.09,0.32
	c-1.21,0.21-1.47,0.41-1.02,1.47c1.05,2.48,0.1,4.23-1.81,5.67c-1.42,1.08-2.68,2.53-4.65,2.61c-0.87,0.04-1.74-0.08-2.61-0.12
	c-1.51-0.07-2.96-0.46-4.34-1.02c-0.7-0.29-1.23-1.01-1.95-1.65c-1.08,0.54-2.29,1.24-3.58,1.77c-1.13,0.47-2.33,0.75-3.5,1.1
	c-0.11,0.03-0.25,0-0.35,0.04c-2.66,1.17-5.35,0.72-8.08,0.28c-2.04-0.33-3.22-1.69-4.16-3.24c-1.41-2.34-0.94-4.87-0.31-7.35
	c0.19-0.76,0.66-1.09,1.5-0.68C3.17,12.25,2.99,14.49,2.79,16.89z M27.24,14.6l0-0.02c0.11,0.92-0.39,1.39-1.19,1.7
	c-0.9,0.35-1.65,0.91-1.8,1.96c1.66,2,3.34,2.3,6.53,1.18c3.48-1.21,5.14-3.51,5.11-7.09c-0.79-0.71-1.6-0.86-2.53-0.2
	c-0.67,0.47-1.39,0.88-2.12,1.26c-0.23,0.12-0.55,0.07-1.12,0.13c0.81-0.78,1.39-1.32,2.06-1.96c-1.5-0.81-2.85-1.16-4.06-0.04
	c-1.14,1.06-3.04,1.58-3.02,3.96C25.98,15.13,26.61,14.86,27.24,14.6z"/>
<path d="M149.06,17.62c0.68-0.52,1.13-0.86,1.57-1.21c0.68-0.54,1.37-1.05,2.02-1.63c1-0.89,1.75-1.9,1.39-3.38
	c-0.06-0.26,0.08-0.58,0.18-0.85c0.32-0.87,1.04-1.05,1.58-0.3c0.35,0.48,0.5,1.16,0.57,1.77c0.18,1.51,0.21,3.03,0.4,4.54
	c0.13,1.06,0.47,1.37,1.53,1.25c4.19-0.48,8.46-0.03,12.61-1.02c0.85-0.2,1.75-0.18,2.63-0.25c1.05-0.09,2.11-0.11,3.15-0.28
	c1.03-0.17,2.04-0.49,3.23-0.78c0.11,0.28,0.43,0.71,0.32,0.95c-0.12,0.26-0.64,0.52-0.96,0.49c-0.82-0.08-1.44,0.25-2.15,0.58
	c-0.71,0.33-1.57,0.44-2.36,0.44c-1.51,0-3.02-0.39-4.53,0.07c-0.11,0.03-0.25-0.02-0.35,0.03c-2.4,1.24-4.94,0.49-7.42,0.5
	c-0.35,0-0.7,0.04-1.05,0.08c-2.03,0.24-4.06,0.49-6.09,0.74c-0.17,0.02-0.35,0.03-0.52,0c-1.55-0.3-3.1-0.59-4.64-0.94
	C149.88,18.32,149.63,18.02,149.06,17.62z M151.65,16.91c1.45,0.49,2.77,1.3,4.33,0.62c-0.53-1.02-1.02-1.96-1.56-3
	C153.21,15.02,153.39,17.07,151.65,16.91z"/>
<path d="M84.38,16.11c-0.56,0.18-1.11,0.36-1.61,0.52c-0.62-0.56-1.21-1.08-1.86-1.66c0.09-0.52,0.19-1.08,0.29-1.64
	c-1.3-0.72-1.3-0.72-2.64,1.53c0.27,0.18,0.65,0.44,1.05,0.7c-0.18,0.21-0.27,0.42-0.39,0.45c-0.27,0.06-0.57,0.06-0.85,0.02
	c-1.63-0.24-2.07,0-2.85,1.37c-0.47,0.83-1.07,1.52-2.23,1.31c-0.34-0.06-0.74,0.17-1.1,0.3c-0.44,0.15-0.86,0.41-1.3,0.47
	c-1.13,0.16-4.17-0.93-5.26-2.06c0.46,0.11,0.94,0.17,1.38,0.34c1.83,0.73,3.54,0.73,5.44-0.08c1.52-0.65,2.27-2.07,3.64-2.78
	c0.41-0.21,0.71-0.63,1.11-0.86c0.74-0.41,1.43-0.82,1.41-1.82c0-0.16,0.12-0.34,0.23-0.47c1.56-1.65,1.38-3.64,1.14-5.65
	c-0.05-0.47-0.14-0.93-0.2-1.4c-0.08-0.59,0.09-1.15,0.68-1.25c0.38-0.06,0.99,0.16,1.2,0.46c1.01,1.42,1.55,3,1.27,4.8
	c-0.14,0.93-0.21,1.87-0.24,2.81c-0.02,1,0.01,1.94,0.87,2.75c0.45,0.42,0.54,1.21,0.8,1.83L84.38,16.11z"/>
<path d="M109.45,16.03c-1.03,0.47-1.17,1.34-1.44,2.08c-0.31,0.84-0.43,1.82-1.75,1.34c-0.11-0.04-0.32,0.08-0.45,0.18
	c-1.64,1.28-3.27,0.81-5.11,0.32c-1.74-0.46-1.88-1.35-2-2.83c-0.23-2.79,1.14-4.73,2.94-6.49c1-0.98,2.09-1.88,3.55-2.22
	c0.79-0.19,1.35-0.06,1.96,0.65c-0.34,0.29-0.6,0.58-0.92,0.77c-1.21,0.72-2.48,1.36-3.66,2.12c-1.05,0.67-1.94,1.51-1.88,2.94
	c0.01,0.27-0.16,0.56-0.25,0.84c-0.33,1.13-0.43,2.3,0.61,3.06c1.02,0.75,2.24,0.68,3.35,0.1c2.14-1.11,2.97-3.07,3.26-5.33
	c0.08-0.58,0.07-1.18,0.22-1.74c0.18-0.62,0.85-0.78,1.21-0.25c0.35,0.5,0.62,1.15,0.67,1.75c0.21,2.98,1.34,4.36,4.17,4.99
	c0.57,0.13,1.11,0.33,1.67,0.5c-0.74,0.85-1.18,0.84-3.5-0.11C110.86,18.21,109.56,17.77,109.45,16.03z"/>
<path d="M52.44,16.84c-0.78-0.11-1.41-0.2-2.09-0.3c-0.51-1.4-1.08-2.73-1.49-4.12c-0.4-1.35-0.63-2.76-0.92-4.13
	c1.55-0.11,1.74,0,2.09,1.48c0.2,0.86,0.27,1.75,0.48,2.6c0.17,0.69,0.47,1.36,0.76,2.14c1.02-1.03,1.78-1.92,2.66-2.65
	c2.26-1.87,4.08-1.63,5.84,0.7c0.27,0.36,0.46,0.78,0.75,1.29c-0.85,0.16-1.41,0.08-1.83-0.57c-0.22-0.34-0.5-0.66-0.82-0.91
	c-0.92-0.75-1.48-0.76-2.27,0.14c-0.77,0.87-1.41,1.86-2.1,2.8C53.17,15.77,52.84,16.26,52.44,16.84z"/>
<path d="M12.02,5.38c-0.13-0.1-0.2-0.13-0.22-0.17c-0.9-2.23-1.36-2.34-3.51-1.32C6.92,4.54,6.1,5.64,5.35,6.82
	C4.8,7.7,4.13,8.34,2.94,8.53C4.45,5.4,6.32,2.85,9.87,2.06c1.85-0.41,3.07,0.36,3.27,2.13C13.26,5.19,12.78,5.42,12.02,5.38z"/>
<path d="M148.48,18.58c0.39,1.34-0.08,2.17-1.23,1.95c-1.31-0.26-2.39,0.33-3.57,0.53c-1.54,0.27-3.09,0.83-4.74-0.01
	c-0.71-0.36-1.8,0.01-2.71,0.07c-0.74,0.04-1.48,0.1-2.43-0.73c2.79-0.03,5.21,0.14,7.58-0.15
	C143.73,19.95,146.03,19.18,148.48,18.58z"/>
<path d="M136.29,8.77c-0.87,0.44-1.06,0.05-1.33-0.39c-0.58-0.94-1.24-1.83-1.87-2.73c-0.54-0.78-1.33-1.11-2.24-1.22
	c-0.78-0.1-1.49-0.13-2.02,0.65c-0.49,0.72-1.2,0.8-2.02,0.46c1.55-2.4,1.99-3.13,5.05-1.94C134.24,4.54,135.42,6.45,136.29,8.77z"
	/>
<path d="M159.88,24.36c-1.38-0.08-2.27-0.38-2.4-1.86c-0.05-0.56-0.68-1.05-0.98-1.6c-0.13-0.23-0.24-0.67-0.13-0.77
	c0.22-0.2,0.59-0.3,0.9-0.32c0.2-0.02,0.5,0.1,0.62,0.26C158.82,21.29,159.99,22.42,159.88,24.36z"/>
<path d="M125.87,14.71c0.3-0.65,0.52-1.12,0.91-1.95c0.38,1.89,0.73,3.44,1.89,4.52c1.07,0.99,2.31,1.79,3.64,2.8
	c-1.98,0.44-2.85-1.04-3.86-1.88C127.39,17.32,126.74,15.93,125.87,14.71z"/>
<path d="M84.36,16.11c0.28,0.81,0.58,1.62,0.85,2.43c0.22,0.65,0.42,1.3,0.71,2.21c-0.77,0.02-1.3,0.03-1.92,0.05
	c-0.35-1.7-1.15-3.26,0.38-4.69C84.38,16.11,84.36,16.11,84.36,16.11z"/>
<path d="M127.01,8.73c-0.45,0.97-0.89,1.94-1.41,3.07c-0.59-1.01-0.34-1.94,0-2.79c0.13-0.33,0.75-0.46,1.15-0.69
	C126.84,8.46,126.93,8.59,127.01,8.73z"/>
<path d="M46.93,9.08c-1.01,0.25-1.8,0.45-2.74,0.68C44.89,8.49,45.35,8.37,46.93,9.08z"/>
<path d="M63.24,16.17c-1.19,0.35-1.72-0.3-2.52-0.87C62.01,14.66,62.45,15.54,63.24,16.17z"/>
<path d="M126.26,6.82c0.1,0.24,0.22,0.39,0.19,0.49c-0.04,0.11-0.22,0.18-0.34,0.26c-0.05-0.09-0.16-0.2-0.14-0.27
	C126.01,7.17,126.12,7.05,126.26,6.82z"/>
<path class="st0" d="M27.24,14.6c-0.63,0.26-1.26,0.52-2.13,0.89c-0.01-2.38,1.88-2.9,3.02-3.96c1.21-1.13,2.56-0.77,4.06,0.04
	c-0.67,0.64-1.24,1.19-2.06,1.96c0.57-0.06,0.89-0.01,1.12-0.13c0.73-0.38,1.45-0.78,2.12-1.26c0.93-0.66,1.74-0.51,2.53,0.2
	c0.02,3.58-1.64,5.88-5.11,7.09c-3.19,1.11-4.87,0.81-6.53-1.18c0.15-1.05,0.9-1.61,1.8-1.96c0.81-0.32,1.3-0.78,1.19-1.7
	c0.34,0.28,0.68,0.55,1.13,0.91c0.4-0.53,0.72-0.94,1.16-1.51C28.58,14.24,27.91,14.42,27.24,14.6z"/>
<path class="st0" d="M151.65,16.91c1.73,0.15,1.56-1.89,2.77-2.38c0.54,1.04,1.03,1.99,1.56,3C154.42,18.21,153.1,17.4,151.65,16.91
	z"/>
<path d="M27.24,14.6c0.67-0.18,1.34-0.36,2.29-0.61c-0.44,0.57-0.75,0.98-1.16,1.51c-0.45-0.36-0.79-0.63-1.13-0.91
	C27.24,14.58,27.24,14.6,27.24,14.6z"/>
</svg>
