<?xml version="1.0" encoding="utf-8"?>
<!-- Generator: Adobe Illustrator 24.0.0, SVG Export Plug-In . SVG Version: 6.00 Build 0)  -->
<svg version="1.1" id="Layer_1" xmlns="http://www.w3.org/2000/svg" xmlns:xlink="http://www.w3.org/1999/xlink" x="0px" y="0px"
	 viewBox="0 0 72.69 55.61" style="enable-background:new 0 0 72.69 55.61;" xml:space="preserve">
<style type="text/css">
	.st0{fill:#FFFFFF;}
</style>
<g>
	<path class="st0" d="M5.16,10.81c0.21-0.03,0.43-0.05,0.64-0.08c0.19,0.52,0.41,1.04,0.55,1.58c0.13,0.51,0.14,1.05,0.26,1.56
		c0.98,4.1,2.15,8.18,2.42,12.41c0.29,4.56,1.09,9.07,0.65,13.7c-0.3,3.16-0.54,6.32-1.2,9.42c-0.36,1.73-1.49,2.32-3.14,1.76
		c-1.11-0.38-2.09-0.87-1.77-2.38c-0.48-0.05-0.83-0.12-1.17-0.12c-0.59,0-1.35-0.02-1.43,0.7c-0.05,0.48,0.24,1.17,0.62,1.51
		c0.83,0.74,1.81,1.3,2.71,1.95c1.17,0.84,2.45,0.74,3.72,0.38c0.41-0.11,0.91-0.45,1.06-0.81c0.48-1.13,0.94-2.3,1.16-3.5
		c0.43-2.36,0.91-4.72,0.86-7.14c-0.07-3.28,0.07-6.57-0.12-9.84c-0.19-3.22-0.8-6.41-1-9.63c-0.28-4.52-1.54-8.78-3.06-12.99
		C6.53,8.18,6.1,7.08,5.64,6C5.32,5.24,4.76,4.98,3.85,5.35C3.89,5.9,3.89,6.43,3.99,6.93c0.28,1.39,0.48,2.77,0.14,4.2
		c-0.13,0.56-0.16,1.18-0.09,1.76c0.13,0.97-0.06,1.84-0.4,2.74c-0.46,1.22-0.4,1.71,0.08,2.69c0.41-1.2,0.96-2.38,1.19-3.61
		C5.15,13.43,5.09,12.11,5.16,10.81z M53.34,17.62c0.12,0.54,0.27,1.16,0.4,1.78c0.18,0.86,0.26,1.76,0.53,2.59
		c0.3,0.89,0.77,1.87,1.86,1.89c1.39,0.02,2.82-0.05,4.15-0.38c1.85-0.47,3.65-1.17,5.43-1.88c1.58-0.62,3.13-1.34,4.65-2.1
		c0.8-0.4,1.07-1.18,0.78-1.74c-0.3-0.58-0.95-0.64-1.81-0.14c-1.17,0.68-2.26,1.55-3.51,2.01c-2.36,0.86-4.81,1.5-7.23,2.2
		c-0.5,0.14-1.05,0.12-1.58,0.16c-0.86,0.08-1.35-0.32-1.41-1.19c-0.07-0.88-0.01-1.78-0.17-2.64c-0.59-3.14,1.31-5.44,2.85-7.69
		c0.86-1.27,1.52-2.45,1.76-3.91c0.18-1.1-0.29-1.88-1.24-2.27c-0.86-0.35-1.55-0.14-2.13,1.01c-1.14,2.24-2.43,4.44-2.62,7.04
		c-0.12,1.66-0.96,2.82-2.4,3.65c-0.96,0.55-1.87,1.23-2.71,1.96c-0.26,0.23-0.21,0.81-0.3,1.24c0.43,0.05,0.92,0.26,1.27,0.12
		c0.52-0.22,0.96-0.67,1.4-1.05C51.85,17.81,52.37,17.31,53.34,17.62z M23.22,12.41c0.76,0.36,0.8,0.89,0.87,1.4
		c0.28,1.97,0.55,3.95,0.83,5.92c0.12,0.85,0.63,1.32,1.24,1.11c0.77-0.26,0.58-0.83,0.44-1.45c-0.5-2.23-0.99-4.47-1.38-6.72
		c-0.35-2.02-0.55-4.07-0.86-6.1c-0.19-1.26-0.6-1.49-2.17-1.28c0.03,0.39,0.02,0.79,0.09,1.18c0.36,2.22,0.51,4.42-0.21,6.61
		c-0.22,0.66-0.6,1.47-0.41,2.03c0.55,1.62-0.67,2.53-1.25,3.66c-0.4,0.79-1.23,1.32-2.22,1.08c-1.01-0.24-1.37-1.1-1.45-2.01
		c-0.33-4.28,0.04-8.45,2.03-12.36c0.24-0.47,0.43-0.97,0.53-1.48c0.04-0.22-0.14-0.61-0.33-0.7c-0.2-0.09-0.6,0-0.78,0.16
		c-0.25,0.22-0.41,0.57-0.53,0.89c-0.38,1.05-0.77,2.09-1.06,3.17c-0.86,3.24-1.76,6.49-1.16,9.9c0.09,0.52,0.11,1.05,0.15,1.58
		c0.14,1.95,1.68,3.03,3.56,2.46c1.52-0.46,2.57-1.51,2.99-2.99c0.43-1.51,0.61-3.1,0.88-4.65C23.12,13.41,23.15,12.98,23.22,12.41z
		 M33.48,20.02c1.72,0.24,1.68,0.23,1.9-0.91c0.24-1.21,0.48-2.42,0.87-3.58c0.44-1.27,1.02-2.5,1.61-3.71
		c0.12-0.25,0.55-0.52,0.81-0.5c0.25,0.02,0.54,0.37,0.68,0.65c0.21,0.41,0.24,0.91,0.45,1.32c1.27,2.45,2.19,5.01,2.81,7.7
		c0.09,0.4,0.26,0.78,0.41,1.16c0.21,0.56,0.55,0.92,1.2,0.7c0.65-0.22,0.7-0.74,0.55-1.29c-0.15-0.57-0.44-1.1-0.54-1.67
		c-0.71-4-2.98-7.39-4.42-11.1c-0.41-1.06-1.38-1.01-2.01-0.03C37.64,9,37.54,9.27,37.41,9.54c-0.64,1.37-1.25,2.76-1.92,4.12
		c-0.13,0.27-0.46,0.45-0.92,0.89c-0.2-0.81-0.34-1.34-0.45-1.88c-0.38-1.89-0.73-3.79-1.14-5.67c-0.2-0.89-0.84-1.36-1.48-1.13
		c-0.83,0.3-0.43,0.95-0.33,1.49c0.01,0.06,0.02,0.12,0.05,0.17c0.9,2.16,1.03,4.44,1.16,6.74c0.05,0.93,0.07,2.02,0.56,2.72
		C33.57,17.95,33.83,18.83,33.48,20.02z M225.84-70.77c-0.31-0.24-0.48-0.46-0.69-0.5c-0.12-0.03-0.3,0.23-0.46,0.36
		c0.17,0.19,0.3,0.43,0.51,0.54C225.29-70.33,225.52-70.56,225.84-70.77z M0.47,172.31c-0.15-0.02-0.31-0.05-0.46-0.07
		c0,0.28-0.01,0.57,0.01,0.85c0,0.02,0.29,0.05,0.29,0.05C0.37,172.87,0.42,172.59,0.47,172.31z M256.4,268.88
		c0.09-0.14,0.17-0.26,0.25-0.38c-0.08-0.04-0.19-0.13-0.25-0.11c-0.09,0.03-0.19,0.14-0.21,0.23
		C256.18,268.67,256.3,268.76,256.4,268.88z M3.31,19.6c-0.05,0.08-0.16,0.16-0.15,0.23c0.01,0.09,0.12,0.17,0.18,0.26
		c0.05-0.08,0.15-0.16,0.15-0.23C3.47,19.76,3.37,19.68,3.31,19.6z"/>
	<path d="M5.16,10.81c-0.07,1.3-0.01,2.63-0.25,3.9c-0.23,1.23-0.78,2.41-1.19,3.61c-0.48-0.98-0.54-1.47-0.08-2.69
		c0.34-0.9,0.53-1.77,0.4-2.74c-0.08-0.57-0.05-1.19,0.09-1.76c0.34-1.42,0.14-2.8-0.14-4.2c-0.1-0.5-0.1-1.03-0.14-1.58
		C4.76,4.98,5.32,5.24,5.64,6C6.1,7.08,6.53,8.18,6.93,9.28c1.52,4.21,2.78,8.47,3.06,12.99c0.2,3.22,0.81,6.41,1,9.63
		c0.19,3.27,0.05,6.56,0.12,9.84c0.05,2.43-0.43,4.79-0.86,7.14c-0.22,1.2-0.69,2.37-1.16,3.5c-0.15,0.36-0.65,0.7-1.06,0.81
		c-1.27,0.36-2.55,0.46-3.72-0.38c-0.9-0.65-1.89-1.21-2.71-1.95c-0.37-0.33-0.67-1.02-0.62-1.51c0.08-0.71,0.84-0.69,1.43-0.7
		c0.34,0,0.68,0.07,1.17,0.12c-0.32,1.5,0.66,2,1.77,2.38c1.65,0.56,2.77-0.04,3.14-1.76c0.66-3.11,0.9-6.26,1.2-9.42
		c0.44-4.63-0.36-9.14-0.65-13.7c-0.27-4.23-1.44-8.31-2.42-12.41c-0.12-0.51-0.13-1.05-0.26-1.56c-0.14-0.54-0.36-1.05-0.55-1.58
		C5.59,10.76,5.38,10.78,5.16,10.81z"/>
	<path d="M53.34,17.62c-0.97-0.31-1.48,0.19-2.03,0.65c-0.44,0.38-0.88,0.83-1.4,1.05c-0.35,0.14-0.84-0.07-1.27-0.12
		c0.09-0.42,0.04-1.01,0.3-1.24c0.84-0.73,1.74-1.41,2.71-1.96c1.44-0.83,2.27-1.99,2.4-3.65c0.19-2.6,1.49-4.8,2.62-7.04
		c0.58-1.15,1.27-1.36,2.13-1.01c0.95,0.39,1.42,1.17,1.24,2.27c-0.24,1.45-0.9,2.64-1.76,3.91c-1.53,2.26-3.44,4.56-2.85,7.69
		c0.16,0.86,0.1,1.76,0.17,2.64c0.06,0.86,0.55,1.26,1.41,1.19c0.53-0.05,1.08-0.02,1.58-0.16c2.42-0.69,4.86-1.33,7.23-2.2
		c1.25-0.46,2.34-1.33,3.51-2.01c0.87-0.5,1.51-0.44,1.81,0.14c0.29,0.56,0.02,1.34-0.78,1.74c-1.52,0.76-3.07,1.48-4.65,2.1
		c-1.78,0.7-3.58,1.41-5.43,1.88c-1.33,0.34-2.77,0.4-4.15,0.38c-1.08-0.02-1.56-0.99-1.86-1.89c-0.28-0.83-0.36-1.72-0.53-2.59
		C53.61,18.78,53.46,18.16,53.34,17.62z M58.37,7.4c-0.1-0.07-0.2-0.14-0.3-0.21c-1.31,0.81-1.59,1.38-1.23,3.07
		C57.43,9.14,57.9,8.27,58.37,7.4z"/>
	<path d="M23.22,12.41c-0.07,0.56-0.1,0.99-0.17,1.42c-0.28,1.56-0.45,3.14-0.88,4.65c-0.42,1.48-1.47,2.53-2.99,2.99
		c-1.88,0.57-3.43-0.5-3.56-2.46c-0.04-0.53-0.06-1.06-0.15-1.58c-0.6-3.42,0.3-6.66,1.16-9.9c0.29-1.07,0.68-2.12,1.06-3.17
		c0.12-0.32,0.29-0.67,0.53-0.89c0.18-0.16,0.58-0.26,0.78-0.16c0.19,0.09,0.37,0.49,0.33,0.7c-0.1,0.51-0.3,1.02-0.53,1.48
		c-1.99,3.91-2.36,8.08-2.03,12.36c0.07,0.91,0.43,1.77,1.45,2.01c0.99,0.23,1.82-0.29,2.22-1.08c0.58-1.13,1.8-2.04,1.25-3.66
		c-0.19-0.57,0.19-1.37,0.41-2.03c0.71-2.19,0.57-4.39,0.21-6.61c-0.06-0.39-0.06-0.79-0.09-1.18c1.57-0.21,1.98,0.01,2.17,1.28
		c0.31,2.03,0.51,4.08,0.86,6.1c0.39,2.25,0.88,4.49,1.38,6.72c0.14,0.62,0.33,1.19-0.44,1.45c-0.61,0.21-1.12-0.26-1.24-1.11
		c-0.28-1.97-0.55-3.95-0.83-5.92C24.02,13.3,23.98,12.77,23.22,12.41z"/>
	<path d="M33.48,20.02c0.35-1.19,0.1-2.07-0.56-3.02c-0.48-0.71-0.51-1.8-0.56-2.72c-0.12-2.3-0.25-4.58-1.16-6.74
		c-0.02-0.05-0.03-0.11-0.05-0.17c-0.11-0.55-0.5-1.19,0.33-1.49c0.63-0.23,1.28,0.24,1.48,1.13c0.42,1.88,0.76,3.78,1.14,5.67
		c0.11,0.54,0.26,1.08,0.45,1.88c0.47-0.44,0.79-0.62,0.92-0.89c0.67-1.36,1.28-2.74,1.92-4.12C37.54,9.27,37.64,9,37.8,8.75
		c0.64-0.98,1.6-1.03,2.01,0.03c1.45,3.71,3.71,7.09,4.42,11.1c0.1,0.57,0.39,1.11,0.54,1.67c0.15,0.55,0.1,1.08-0.55,1.29
		c-0.65,0.22-0.99-0.14-1.2-0.7c-0.14-0.39-0.31-0.77-0.41-1.16c-0.62-2.68-1.54-5.25-2.81-7.7c-0.21-0.41-0.24-0.91-0.45-1.32
		c-0.14-0.28-0.43-0.63-0.68-0.65c-0.26-0.02-0.68,0.25-0.81,0.5c-0.59,1.21-1.17,2.44-1.61,3.71c-0.4,1.16-0.64,2.38-0.87,3.58
		C35.16,20.26,35.2,20.26,33.48,20.02z"/>
	<path d="M225.84-70.77c-0.31,0.2-0.55,0.44-0.64,0.4c-0.21-0.11-0.35-0.35-0.51-0.54c0.15-0.13,0.34-0.39,0.46-0.36
		C225.35-71.23,225.53-71.01,225.84-70.77z"/>
	<path d="M0.47,172.31c-0.05,0.28-0.1,0.55-0.16,0.83c0,0.01-0.29-0.02-0.29-0.05c-0.02-0.28-0.01-0.57-0.01-0.85
		C0.16,172.27,0.31,172.29,0.47,172.31z"/>
	<path d="M256.4,268.88c-0.1-0.12-0.22-0.21-0.2-0.27c0.02-0.09,0.12-0.2,0.21-0.23c0.06-0.02,0.16,0.07,0.25,0.11
		C256.57,268.62,256.49,268.74,256.4,268.88z"/>
	<path d="M3.31,19.6c0.06,0.08,0.16,0.16,0.17,0.25c0.01,0.07-0.09,0.16-0.15,0.23C3.27,20,3.17,19.92,3.16,19.82
		C3.15,19.76,3.25,19.67,3.31,19.6z"/>
	<path class="st0" d="M58.37,7.4c-0.47,0.87-0.94,1.75-1.53,2.85c-0.36-1.68-0.09-2.26,1.23-3.07C58.17,7.26,58.27,7.33,58.37,7.4z"
		/>
</g>
</svg>
