<?xml version="1.0" encoding="utf-8"?>
<!-- Generator: Adobe Illustrator 24.0.0, SVG Export Plug-In . SVG Version: 6.00 Build 0)  -->
<svg version="1.1" id="Layer_1" xmlns="http://www.w3.org/2000/svg" xmlns:xlink="http://www.w3.org/1999/xlink" x="0px" y="0px"
	 viewBox="0 0 128.92 24.31" style="enable-background:new 0 0 128.92 24.31;" xml:space="preserve">
<style type="text/css">
	.st0{fill:#FFFFFF;}
</style>
<path class="st0" d="M83.49,13.26c-1.29-1.57-2.48-2.89-3.53-4.32c-0.8-1.08-1.41-2.3-2.12-3.45c-0.74-1.19-1.19-1.25-2.45-0.56
	c-0.97,0.53-1.94,1.19-2.99,1.43c-2.63,0.59-5.3,1.01-7.98,1.4c-1.68,0.25-1.79,0.42-1.4,2.1c0.6,2.56,0.62,5.03-1.57,7.01
	c-1.1,0.99-2.84,1.33-3.71,0.62c-1.53-1.25-2.54-4.41-1.95-6.29c0.4-1.27,1.24-2.11,2.65-2.25c0.44-0.04,0.87-0.15,1.31-0.22
	c-0.31-1.29-0.35-1.37-1.08-1.48c-1.38-0.2-2.65,0.12-3.4,1.35c-0.51,0.83-0.94,1.81-1.03,2.76c-0.24,2.81,0.43,5.34,2.62,7.35
	c1,0.92,2.02,1.14,3.23,0.68c2.58-0.99,4.17-2.81,4.53-5.58c0.13-0.98,0.14-1.99,0.08-2.99c-0.06-0.96,0.25-1.61,1.19-1.89
	c0.56-0.16,1.13-0.29,1.7-0.41c1.31-0.29,2.64-0.52,3.93-0.87c1.56-0.42,3.1-0.93,4.63-1.4c0.31,0.42,0.52,0.7,0.73,0.98
	c1.16,1.61,2.13,3.32,3.52,4.8c1.69,1.81,3.59,3.57,4.38,6.09c0.17,0.56,1.01,0.59,1.27,0.04c0.2-0.43,0.24-1.02,0.15-1.5
	c-0.15-0.81-0.49-1.57-0.68-2.37c-0.48-2.02-0.06-3.1,1.64-4.21c0.98-0.64,1.98-1.24,3.01-1.78c0.68-0.36,1.38-0.22,1.97,0.29
	c1.39,1.18,2.49,2.55,3.28,4.22c0.88,1.85,1.93,3.62,2.92,5.41c0.42,0.76,1.01,1.35,1.98,1.17c0.89-0.17,1.45-0.77,1.73-1.6
	c0.16-0.49,0.19-1.03,0.3-1.55c0.15-0.72,0.33-1.44,0.51-2.22c0.89,0.07,1.59,0.2,2.29,0.17c1.58-0.07,3.2-0.02,4.72-0.37
	c3.13-0.73,6.21-1.66,9.29-2.59c2.19-0.66,4.35-1.43,6.5-2.19c0.26-0.09,0.41-0.47,0.61-0.71c-0.27-0.19-0.55-0.53-0.82-0.52
	c-0.44,0.01-0.89,0.23-1.33,0.38c-1.93,0.68-3.84,1.43-5.79,2.04c-2.01,0.62-4.06,1.12-6.1,1.63c-2.58,0.65-5.2,0.96-7.86,0.86
	c-1.12-0.04-1.27-0.24-1.26-1.42c0.01-1.17,0.1-2.35,0.07-3.52c-0.02-0.88-0.54-1.19-1.29-0.74c-0.55,0.33-1.05,0.77-1.48,1.24
	c-1.54,1.66-1.46,3.4,0.07,5.07c0.34,0.38,0.57,1.05,0.53,1.55c-0.07,0.77-0.43,1.52-0.69,2.33c-1.4-0.9-1.78-1.38-2.48-3.11
	c-0.94-2.31-2.08-4.47-4.06-6.1c-0.62-0.51-1.21-0.96-2.05-0.76c-1.43,0.34-2.89,0.6-4.28,1.08c-1.71,0.59-3.21,1.48-3.44,3.58
	C84,12.26,83.76,12.61,83.49,13.26z"/>
<path class="st0" d="M14.19,21.14c0.73-1.22,1.28-2.11,1.82-3.01c1.3-2.17,2.59-4.34,3.89-6.5c1.1-1.82,2.49-1.8,3.88-0.31
	c1.16,1.23,2.12,2.65,3.22,3.94c0.56,0.66,1.13,1.37,1.85,1.82c1.62,1.03,3.26,2.1,5.04,2.79c1.91,0.74,4.08,1.19,5.73-0.6
	c0.93-1.01,1.89-2.23,2.22-3.51c0.53-2.08,0.61-4.28,0.76-6.44c0.05-0.73-0.19-1.52-0.44-2.23c-0.37-1.07-0.85-1.31-2.32-1.3
	c0.3,0.82,0.57,1.57,0.83,2.32c0.18,0.49,0.48,0.98,0.5,1.47c0.09,1.95-0.01,3.87-0.76,5.72c-1.39,3.42-4.64,4.03-7.26,2.72
	c-1.46-0.73-2.81-1.71-4.15-2.66c-0.67-0.47-1.28-1.05-1.8-1.67c-1.06-1.26-2-2.61-3.07-3.86c-1.45-1.7-3.31-2.24-4.86,0.17
	c-1.3,2.01-2.58,4.03-3.87,6.05c-0.35,0.54-0.66,1.12-1.07,1.62c-0.68,0.82-1.24,0.77-1.84-0.07c-2.07-2.92-4.09-5.87-6.23-8.73
	C5.54,7.89,4.83,6.78,3.26,6.05c0.2,1.14,0.35,1.96,0.47,2.62C4.31,9,4.85,9.17,5.18,9.52c0.87,0.95,1.69,1.95,2.46,2.99
	c1.74,2.36,3.43,4.77,5.16,7.14C13.13,20.1,13.57,20.48,14.19,21.14z"/>
<path d="M83.49,13.26c0.27-0.65,0.51-1,0.55-1.37c0.22-2.09,1.73-2.99,3.44-3.58c1.38-0.48,2.85-0.74,4.28-1.08
	C92.6,7.04,93.19,7.49,93.8,8c1.97,1.63,3.12,3.79,4.06,6.1c0.7,1.73,1.08,2.21,2.48,3.11c0.26-0.81,0.62-1.56,0.69-2.33
	c0.05-0.5-0.18-1.17-0.53-1.55c-1.53-1.67-1.61-3.41-0.07-5.07c0.43-0.47,0.93-0.91,1.48-1.24c0.75-0.44,1.27-0.14,1.29,0.74
	c0.02,1.17-0.06,2.35-0.07,3.52c-0.01,1.18,0.14,1.38,1.26,1.42c2.66,0.1,5.28-0.21,7.86-0.86c2.04-0.51,4.09-1.01,6.1-1.63
	c1.95-0.6,3.86-1.36,5.79-2.04c0.44-0.15,0.88-0.37,1.33-0.38c0.27,0,0.54,0.34,0.82,0.52c-0.2,0.24-0.36,0.62-0.61,0.71
	c-2.16,0.77-4.31,1.54-6.5,2.19c-3.08,0.93-6.16,1.86-9.29,2.59c-1.52,0.36-3.14,0.3-4.72,0.37c-0.7,0.03-1.4-0.1-2.29-0.17
	c-0.18,0.79-0.35,1.5-0.51,2.22c-0.11,0.51-0.14,1.05-0.3,1.55c-0.27,0.83-0.84,1.44-1.73,1.6c-0.97,0.18-1.56-0.41-1.98-1.17
	c-1-1.79-2.05-3.56-2.92-5.41c-0.79-1.67-1.89-3.04-3.28-4.22c-0.59-0.5-1.29-0.64-1.97-0.29c-1.03,0.54-2.04,1.14-3.01,1.78
	c-1.7,1.11-2.12,2.19-1.64,4.21c0.19,0.8,0.53,1.57,0.68,2.37c0.09,0.48,0.05,1.06-0.15,1.5c-0.26,0.55-1.09,0.52-1.27-0.04
	c-0.78-2.52-2.69-4.28-4.38-6.09c-1.39-1.49-2.36-3.19-3.52-4.8c-0.2-0.28-0.42-0.56-0.73-0.98c-1.53,0.47-3.07,0.98-4.63,1.4
	c-1.29,0.35-2.62,0.58-3.93,0.87c-0.57,0.13-1.14,0.25-1.7,0.41c-0.94,0.28-1.24,0.93-1.19,1.89c0.06,0.99,0.04,2-0.08,2.99
	c-0.36,2.77-1.95,4.59-4.53,5.58c-1.2,0.46-2.23,0.24-3.23-0.68c-2.19-2.01-2.86-4.54-2.62-7.35c0.08-0.95,0.52-1.93,1.03-2.76
	c0.75-1.23,2.02-1.55,3.4-1.35c0.73,0.1,0.77,0.19,1.08,1.48c-0.44,0.08-0.87,0.18-1.31,0.22c-1.41,0.14-2.25,0.98-2.65,2.25
	c-0.59,1.89,0.42,5.05,1.95,6.29c0.87,0.71,2.61,0.37,3.71-0.62c2.19-1.98,2.17-4.45,1.57-7.01c-0.39-1.68-0.28-1.86,1.4-2.1
	c2.67-0.39,5.34-0.82,7.98-1.4c1.05-0.23,2.02-0.9,2.99-1.43c1.26-0.69,1.71-0.62,2.45,0.56c0.72,1.14,1.33,2.36,2.12,3.45
	C81.01,10.37,82.19,11.69,83.49,13.26z M101.39,10.26c-0.1,0.26-0.22,0.41-0.2,0.55c0.02,0.11,0.19,0.21,0.3,0.31
	c0.07-0.14,0.21-0.28,0.21-0.42C101.69,10.57,101.54,10.46,101.39,10.26z"/>
<path d="M14.19,21.14c-0.62-0.66-1.06-1.04-1.39-1.49c-1.73-2.37-3.42-4.78-5.16-7.14c-0.76-1.04-1.59-2.04-2.46-2.99
	C4.85,9.17,4.31,9,3.72,8.67C3.61,8.01,3.46,7.19,3.26,6.05c1.57,0.73,2.28,1.84,3.01,2.81c2.14,2.86,4.16,5.81,6.23,8.73
	c0.6,0.85,1.16,0.89,1.84,0.07c0.41-0.5,0.72-1.07,1.07-1.62c1.29-2.02,2.57-4.04,3.87-6.05c1.55-2.4,3.41-1.86,4.86-0.17
	c1.07,1.25,2.01,2.61,3.07,3.86c0.53,0.62,1.14,1.21,1.8,1.67c1.35,0.94,2.69,1.92,4.15,2.66c2.61,1.31,5.87,0.7,7.26-2.72
	c0.75-1.85,0.85-3.78,0.76-5.72c-0.02-0.5-0.33-0.98-0.5-1.47c-0.27-0.75-0.54-1.5-0.83-2.32c1.48-0.02,1.95,0.23,2.32,1.3
	c0.25,0.71,0.49,1.5,0.44,2.23c-0.15,2.16-0.23,4.36-0.76,6.44c-0.33,1.28-1.29,2.5-2.22,3.51c-1.65,1.79-3.82,1.34-5.73,0.6
	c-1.78-0.69-3.41-1.77-5.04-2.79c-0.72-0.45-1.29-1.16-1.85-1.82c-1.1-1.29-2.06-2.71-3.22-3.94C22.39,9.84,21,9.81,19.9,11.63
	c-1.3,2.16-2.59,4.33-3.89,6.5C15.47,19.03,14.92,19.93,14.19,21.14z"/>
<path class="st0" d="M101.39,10.26c0.15,0.2,0.3,0.32,0.3,0.43c0,0.14-0.13,0.28-0.21,0.42c-0.1-0.1-0.28-0.19-0.3-0.31
	C101.17,10.67,101.29,10.51,101.39,10.26z"/>
</svg>
